<?xml version="1.0" encoding="UTF-8"?>
<svg width="182px" height="182px" viewBox="0 0 182 182" version="1.1" xmlns="http://www.w3.org/2000/svg" xmlns:xlink="http://www.w3.org/1999/xlink">
    <!-- Generator: Sketch 51.3 (57544) - http://www.bohemiancoding.com/sketch -->
    <title>app icon</title>
    <desc>Created with Sketch.</desc>
    <defs></defs>
    <g id="Page-1" stroke="none" stroke-width="1" fill="none" fill-rule="evenodd">
        <g id="One-page-Copy" transform="translate(-941.000000, -2805.000000)" fill-rule="nonzero">
            <g id="app-icon" transform="translate(941.000000, 2805.000000)">
                <rect id="Rectangle-23" fill="#5D26AB" x="0" y="0" width="182" height="182" rx="26.9680313"></rect>
                <path d="M138.834215,103.570749 C138.234857,103.289646 137.543111,103.274287 136.931474,103.527859 C111.600869,113.922558 82.546061,101.97658 72.0590579,76.8457457 C66.7399788,64.0990611 67.0586616,49.725171 72.9376283,37.2224948 C73.4899144,36.0650489 72.9908396,34.6830109 71.8231156,34.135586 C71.2237581,33.8544837 70.5320117,33.8391245 69.9203747,34.0926961 C42.1274335,45.4092366 28.8518097,76.9152968 40.268548,104.463611 C51.6852863,132.011925 83.4711182,145.170699 111.264352,133.854449 C123.940326,128.693179 134.18437,118.98066 139.94902,106.657657 C140.501014,105.500212 140.001939,104.118174 138.834215,103.570749 Z" id="moon" fill="#FFFFFF" transform="translate(88.173913, 85.913043) scale(-1, 1) translate(-88.173913, -85.913043) "></path>
                <polygon id="Star-Copy-13" fill="#5D26AB" points="129.333258 86.5538624 125.53306 88.4211495 126.258833 84.4661718 123.184408 81.665241 127.433159 81.0882176 129.333258 77.4898599 131.233357 81.0882176 135.482109 81.665241 132.407683 84.4661718 133.133457 88.4211495"></polygon>
                <polygon id="Star-Copy-15" fill="#5D26AB" opacity="0.867801339" points="117.718763 65.5908726 113.49632 67.9249816 114.302735 62.9812594 110.886707 59.4800959 115.607542 58.7588166 117.718763 54.2608696 119.829984 58.7588166 124.550819 59.4800959 121.134791 62.9812594 121.941206 67.9249816"></polygon>
                <polygon id="Star-Copy-14" fill="#5D26AB" points="119.573591 111.36108 117.040125 112.528135 117.523974 110.056273 115.474357 108.305692 118.306858 107.945052 119.573591 105.696079 120.840324 107.945052 123.672824 108.305692 121.623207 110.056273 122.107056 112.528135"></polygon>
                <polygon id="Star-Copy-17" fill="#5D26AB" points="111.764702 91.7537041 109.231236 93.1541695 109.715085 90.1879362 107.665468 88.0872381 110.497969 87.6544705 111.764702 84.9557023 113.031434 87.6544705 115.863935 88.0872381 113.814318 90.1879362 114.298167 93.1541695"></polygon>
                <polygon id="Star-Copy-16" fill="#FFFFFF" points="101.73913 103.227595 100.341836 104 100.608696 102.364019 99.4782609 101.205412 101.040483 100.966725 101.73913 99.4782609 102.437778 100.966725 104 101.205412 102.869565 102.364019 103.136425 104"></polygon>
                <polygon id="Star-Copy-19" fill="#FFFFFF" points="122.652174 94.3772178 121.604203 94.9565217 121.804348 93.7295363 120.956522 92.8605804 122.128189 92.6815656 122.652174 91.5652174 123.176159 92.6815656 124.347826 92.8605804 123.5 93.7295363 123.700145 94.9565217"></polygon>
            </g>
        </g>
    </g>
</svg>