<?xml version="1.0" encoding="UTF-8"?>
<svg width="36px" height="36px" viewBox="0 0 36 36" version="1.1" xmlns="http://www.w3.org/2000/svg" xmlns:xlink="http://www.w3.org/1999/xlink">
    <!-- Generator: Sketch 51.3 (57544) - http://www.bohemiancoding.com/sketch -->
    <title>app icon@2x</title>
    <desc>Created with Sketch.</desc>
    <defs></defs>
    <g id="Page-1" stroke="none" stroke-width="1" fill="none" fill-rule="evenodd">
        <g id="iPhone-X" transform="translate(-26.000000, -1771.000000)" fill-rule="nonzero">
            <g id="De-app" transform="translate(26.000000, 1771.000000)">
                <g id="app-icon">
                    <rect id="Rectangle-23" fill="#5D26AB" x="0" y="0" width="35.9999979" height="35.9999979" rx="5.37599967"></rect>
                    <path d="M27.4617112,20.4865205 C27.343157,20.4309178 27.206328,20.4278798 27.0853449,20.4780368 C22.0748959,22.534131 16.3277913,20.1711904 14.2534392,15.2002565 C13.2013137,12.6789344 13.2643499,9.83574753 14.4272223,7.36269084 C14.5364657,7.13374551 14.4377476,6.86037538 14.2067693,6.75209353 C14.088215,6.69649088 13.9513861,6.6934528 13.830403,6.74360982 C8.33289845,8.98204627 5.70695103,15.2140138 7.96520682,20.6631305 C10.2234626,26.1122473 16.5107697,28.7150817 22.008332,26.4767025 C24.5156673,25.4557921 26.5419616,23.5346347 27.6822221,21.0971178 C27.7914076,20.8681725 27.6926895,20.5948023 27.4617112,20.4865205 Z" id="moon" fill="#FFFFFF" transform="translate(17.440993, 16.993788) scale(-1, 1) translate(-17.440993, -16.993788) "></path>
                    <polygon id="Star-Copy-13" fill="#5D26AB" points="25.5824012 17.1205432 24.8307136 17.4898967 24.9742732 16.7075934 24.3661451 16.1535632 25.2065574 16.0394267 25.5824012 15.3276637 25.958245 16.0394267 26.7986572 16.1535632 26.1905292 16.7075934 26.3340888 17.4898967"></polygon>
                    <polygon id="Star-Copy-15" fill="#5D26AB" opacity="0.867801339" points="23.2850286 12.974018 22.4498202 13.4357098 22.6093308 12.4578308 21.933633 11.765293 22.8674244 11.6226224 23.2850286 10.7329186 23.7026328 11.6226224 24.6364243 11.765293 23.9607264 12.4578308 24.1202371 13.4357098"></polygon>
                    <polygon id="Star-Copy-14" fill="#5D26AB" points="23.6519176 22.0274651 23.1507926 22.258311 23.2464989 21.7693715 22.8410803 21.4231026 23.4013551 21.3517673 23.6519176 20.9069154 23.9024801 21.3517673 24.462755 21.4231026 24.0573363 21.7693715 24.1530427 22.258311"></polygon>
                    <polygon id="Star-Copy-17" fill="#5D26AB" points="22.1073023 18.1490833 21.6061772 18.4260984 21.7018836 17.8393709 21.2964649 17.4238483 21.8567398 17.3382459 22.1073023 16.8044236 22.3578648 17.3382459 22.9181397 17.4238483 22.512721 17.8393709 22.6084273 18.4260984"></polygon>
                    <polygon id="Star-Copy-16" fill="#FFFFFF" points="20.1242224 20.4186439 19.8478345 20.5714273 19.9006199 20.2478268 19.6770175 20.0186516 19.9860285 19.971439 20.1242224 19.6770175 20.2624163 19.971439 20.5714273 20.0186516 20.3478249 20.2478268 20.4006103 20.5714273"></polygon>
                    <polygon id="Star-Copy-19" fill="#FFFFFF" points="24.2608681 18.66802 24.0535772 18.7826076 24.0931663 18.5399072 23.9254644 18.3680258 24.1572227 18.3326163 24.2608681 18.1118002 24.3645136 18.3326163 24.5962718 18.3680258 24.42857 18.5399072 24.468159 18.7826076"></polygon>
                </g>
            </g>
        </g>
    </g>
</svg>