<?xml version="1.0" encoding="UTF-8"?>
<svg width="43px" height="44px" viewBox="0 0 43 44" version="1.1" xmlns="http://www.w3.org/2000/svg" xmlns:xlink="http://www.w3.org/1999/xlink">
    <!-- Generator: Sketch 51.3 (57544) - http://www.bohemiancoding.com/sketch -->
    <title>function icon@2x</title>
    <desc>Created with Sketch.</desc>
    <defs>
        <path d="M0,0 C11.4299112,0 18.6674321,1.587359 21.7125627,4.762077 C26.2802586,9.52415401 22.7830899,14.0279934 21.7125627,18.8243049 C20.998878,22.0218459 19.4763127,24.0960379 17.1448668,25.046881 C13.3403375,23.409377 10.9982735,21.7489566 10.1186748,20.0656196 C8.93118334,17.7930508 12.6650422,11.338299 11.4269957,11.9355542 C8.34794817,13.4209404 4.53894962,13.6336331 0,12.5736323 L0,0 Z" id="path-1"></path>
    </defs>
    <g id="Page-1" stroke="none" stroke-width="1" fill="none" fill-rule="evenodd">
        <g id="iPhone-X" transform="translate(-25.000000, -1477.000000)">
            <g id="De-functies" transform="translate(25.000000, 1477.000000)">
                <g id="function-icon">
                    <path d="M36.6586271,23.1733337 C36.6005789,22.6495241 35.9976728,22.2554582 35.4763523,22.2554582 C33.7915234,22.2554582 32.2962655,21.2532897 31.669186,19.7021688 C31.0290655,18.1138171 31.4420824,16.2617878 32.6973547,15.0947402 C33.0927186,14.7283958 33.1409065,14.1149746 32.8094752,13.6891577 C31.9468631,12.5793262 30.9668824,11.5766742 29.8965691,10.707795 C29.4778269,10.3673994 28.8625161,10.414784 28.4991185,10.8223884 C27.4032004,12.0524544 25.4344919,12.5095386 23.9131522,11.8663005 C22.3305835,11.1914727 21.3316774,9.56572908 21.4298027,7.82071807 C21.4620871,7.27224919 21.0664051,6.7956631 20.5271136,6.7320001 C19.1535184,6.57082794 17.7678364,6.56615394 16.3902653,6.72104039 C15.8578123,6.78067409 15.4624484,7.24597813 15.4801014,7.7875166 C15.53974,9.51544337 14.5295424,11.1124983 12.9622412,11.7631504 C11.4591905,12.3854361 9.50415918,11.9317364 8.4104676,10.712469 C8.04897843,10.310828 7.44448204,10.2615093 7.02287721,10.5946522 C5.92107479,11.4709452 4.91898803,12.4742419 4.04842416,13.5750478 C3.70920006,14.0029599 3.75929644,14.6231504 4.15800006,14.9907841 C5.43808201,16.165568 5.85078081,18.0335534 5.18616875,19.6404399 C4.55161453,21.1723813 2.98208679,22.1592384 1.18545544,22.1592384 C0.602428925,22.1402201 0.187503617,22.5371871 0.123093978,23.0745351 C-0.0384867476,24.473993 -0.0402361452,25.900689 0.115301207,27.3115902 C0.1733494,27.8376561 0.794067482,28.2283374 1.32111327,28.2283374 C2.92260727,28.1870773 4.45921452,29.1911799 5.10474224,30.7814657 C5.74708924,32.3698173 5.33359526,34.2210408 4.07625548,35.3897002 C3.68295909,35.7560445 3.63270367,36.3680152 3.96477114,36.7933485 C4.81863622,37.8962496 5.79957117,38.8995464 6.87306516,39.7758394 C7.29451095,40.1197808 7.90743626,40.0715903 8.27274229,39.6635024 C9.37295436,38.4305354 11.3413447,37.974257 12.8564821,38.6187845 C14.4436629,39.2918394 15.4420918,40.9174219 15.3446026,42.6629164 C15.3126364,43.2113853 15.7092725,43.6894219 16.2466557,43.7516344 C16.9495954,43.8349604 17.656193,43.8762204 18.3650171,43.8762204 C19.03774,43.8762204 19.710622,43.8389897 20.3835039,43.7630776 C20.9165931,43.7034439 21.3113208,43.2376563 21.2933497,42.6959567 C21.2318027,40.9688358 22.2442268,39.3716196 23.8096196,38.722257 C25.3226895,38.095942 27.2689739,38.5543156 28.3633016,39.7718101 C28.7266992,40.1726453 29.3275378,40.2213193 29.750892,39.8894658 C30.850786,39.0154292 31.8509643,38.012616 32.7253451,36.908909 C33.0648872,36.4818027 33.0166993,35.8608064 32.6157692,35.492528 C31.3360053,34.31855 30.92108,32.4497587 31.585692,30.844484 C32.210386,29.3331726 33.7215475,28.3184327 35.3468969,28.3184327 L35.5743186,28.3245572 C36.1020005,28.3679125 36.5869018,27.9561176 36.6506752,27.4105499 C36.8130512,26.0098026 36.8148005,24.5847183 36.6586271,23.1733337 Z M18.3871232,35.984909 C12.5325255,35.984909 7.78672783,31.1753704 7.78672783,25.2423007 C7.78672783,19.3092311 12.5326845,14.4996925 18.3871232,14.4996925 C24.2415618,14.4996925 28.9875185,19.3092311 28.9875185,25.2423007 C28.9875185,27.2561469 28.439639,29.139766 27.4881257,30.7505206 L22.8464967,26.0463887 C23.1825401,25.2434289 23.3600244,24.3729381 23.3598654,23.4745645 C23.3598654,21.7153703 22.6838027,20.0615827 21.4562027,18.8178171 C20.2289208,17.5740515 18.5970509,16.8890698 16.8614894,16.8890698 C16.2822798,16.8890698 15.7057737,16.9670772 15.148034,17.1209966 C14.9037544,17.1885277 14.704005,17.3925717 14.6389593,17.6406156 C14.5724821,17.8943006 14.6473882,18.1542713 14.8430026,18.3526743 C14.8430026,18.3526743 17.1345545,20.6928941 17.9012677,21.4697439 C17.981581,21.5511359 17.981422,21.7453483 17.9701304,21.815297 C17.8856822,22.7206011 17.7366653,23.7459784 17.6137304,24.1400443 C17.5971906,24.156645 17.5816051,24.170667 17.5647472,24.1877513 C17.5470942,24.2056414 17.5308726,24.2228868 17.5138557,24.2406157 C17.1199231,24.3687476 16.0925496,24.5215388 15.236299,24.5992238 C15.1911328,24.6051872 15.1784099,24.6061542 15.161552,24.6061542 C15.068993,24.6061542 14.9328581,24.5798832 14.8091279,24.4546524 C14.0110845,23.6458905 11.8093881,21.4305791 11.8093881,21.4305791 C11.6777062,21.2975583 11.4189544,21.1034273 11.0331327,20.848186 C10.7961688,21.2291416 10.6481062,21.5298074 10.5889447,21.7501835 C9.98285798,24.0231945 10.625364,26.4681762 12.2661399,28.1311506 C13.49374,29.3750774 15.1257689,30.0600591 16.8616484,30.0600591 C17.7481159,30.0600591 18.6070702,29.8803521 19.3992292,29.5397953 L24.0912726,34.2948577 C22.4439762,35.3631068 20.4878316,35.984909 18.3871232,35.984909 Z" id="Shape" fill="#5D26AB" fill-rule="nonzero"></path>
                    <g id="Group-2" transform="translate(20.833735, 0.000000)">
                        <mask id="mask-2" fill="white">
                            <use xlink:href="#path-1"></use>
                        </mask>
                        <g id="Rectangle-22" fill-rule="nonzero"></g>
                        <path d="M21.2098668,11.5700024 L18.7837687,11.1598263 C18.6074401,10.4292271 18.3503407,9.73084463 18.0155048,9.07947164 L19.5686241,7.12784581 C19.89895,6.71539823 19.8839439,6.12194907 19.5356872,5.72387856 L18.5707858,4.62332581 C18.2210257,4.22567082 17.6410079,4.14156908 17.1985872,4.42484458 L15.1238071,5.74664919 C14.2112494,5.10048408 13.1775494,4.62332581 12.0624501,4.34644935 L11.656547,1.87450631 C11.5713757,1.35108653 11.1244449,0.967032981 10.5998048,0.967032981 L9.14571492,0.967032981 C8.62214087,0.967032981 8.17370674,1.35108653 8.09042143,1.87450631 L7.68230428,4.34722499 C6.76037115,4.57598395 5.89597514,4.9452449 5.10712904,5.43157237 L3.13397512,4.00444667 C2.70871984,3.69654454 2.12462932,3.74468974 1.75352179,4.11998962 L0.72624518,5.1618429 C0.355930318,5.53794612 0.308424618,6.1298994 0.613029639,6.56087928 L2.02447921,8.56441772 C1.54912154,9.35784398 1.18851009,10.2288898 0.962817009,11.1549232 L-1.49017728,11.5700301 C-2.00585194,11.656348 -2.3855422,12.1093228 -2.3855422,12.6410531 L-2.3855422,14.1135538 C-2.3855422,14.6452286 -2.00585194,15.0982589 -1.49017728,15.1845768 L0.962817009,15.5996837 C1.14816577,16.3616965 1.41723719,17.089581 1.77486929,17.7644725 L0.228829336,19.7050732 C-0.100375875,20.1171329 -0.0865451018,20.7109699 0.26171159,21.1086803 L1.22587504,22.2092608 C1.57566241,22.6076637 2.1559809,22.6902418 2.59845632,22.4076866 L4.70313925,21.0677652 C5.59369347,21.685093 6.60118059,22.1388159 7.68230428,22.4076866 L8.09042143,24.8800451 C8.17373408,25.4034926 8.62214087,25.7875462 9.14571492,25.7875462 L10.5998048,25.7875462 C11.1244449,25.7875462 11.5713757,25.4035203 11.656547,24.8800728 L12.0631335,22.4077143 C12.9735592,22.1820302 13.8269944,21.819196 14.6088158,21.3412067 L16.664189,22.8289155 C17.088679,23.1379257 17.6732068,23.0894481 18.0439317,22.7129571 L19.0716183,21.6714639 C19.4414958,21.2964964 19.4915982,20.7048756 19.1844238,20.2731201 L17.7210952,18.1938734 C18.1978196,17.3977878 18.5603444,16.5251907 18.7846161,15.5950298 L21.2106868,15.1844937 C21.7278648,15.0981758 22.1060244,14.6451732 22.1060244,14.1134707 L22.1060244,12.6409699 C22.1052591,12.1093228 21.7270995,11.656348 21.2098668,11.5700024 Z M9.89869941,18.0311548 C7.36313048,18.0311548 5.30666392,15.9466172 5.30666392,13.3773034 C5.30666392,10.8076018 7.36313048,8.72345201 9.89869941,8.72345201 C12.433831,8.72345201 14.4906802,10.8076018 14.4906802,13.3773034 C14.4906802,15.9466172 12.433831,18.0311548 9.89869941,18.0311548 Z" id="settings_1_" fill="#5D26AB" fill-rule="nonzero" mask="url(#mask-2)"></path>
                    </g>
                </g>
            </g>
        </g>
    </g>
</svg>