<?xml version="1.0" encoding="UTF-8"?>
<svg width="1440px" height="935px" viewBox="0 0 1440 935" version="1.1" xmlns="http://www.w3.org/2000/svg" xmlns:xlink="http://www.w3.org/1999/xlink">
    <!-- Generator: Sketch 51.3 (57544) - http://www.bohemiancoding.com/sketch -->
    <title>Group 44</title>
    <desc>Created with Sketch.</desc>
    <defs>
        <radialGradient cx="50.7666316%" cy="50%" fx="50.7666316%" fy="50%" r="100%" gradientTransform="translate(0.507666,0.500000),scale(0.614424,1.000000),rotate(90.000000),translate(-0.507666,-0.500000)" id="radialGradient-1">
            <stop stop-color="#34146D" offset="0%"></stop>
            <stop stop-color="#141A3B" offset="100%"></stop>
        </radialGradient>
    </defs>
    <g id="Page-1" stroke="none" stroke-width="1" fill="none" fill-rule="evenodd">
        <g id="One-page" transform="translate(0.000000, -3062.000000)" fill-rule="nonzero">
            <g id="Group-44" transform="translate(-323.000000, 2802.000000)">
                <path d="M323,260 C597.385417,296.027515 837.71875,314.041273 1044,314.041273 C1250.28125,314.041273 1490.61458,296.027515 1765,260 L1765,1146 C1452.72222,1108.36864 1212.38889,1089.55295 1044,1089.55295 C875.611111,1089.55295 635.277778,1108.36864 323,1146 L323,260 Z" id="Rectangle-14" fill="url(#radialGradient-1)"></path>
                <g id="Group-21">
                    <path d="M99.2490518,965.458747 C249.375109,893.714952 348.103045,832.038876 395.432861,780.430518 C455.60775,714.815912 464.398774,632.295631 516.241501,602.020029 C596.979146,554.870103 798.008264,524.162254 974.48768,492.50644 C1021.51157,484.071579 1106.69425,443.290486 1230.03572,370.163162 L1469.95477,215.318518 L1504.36922,309.871417 L1422.37813,380.809283 C1343.05779,448.500956 1282.81632,494.83525 1241.65372,519.812168 C1124.06092,591.165903 1009.68748,630.429559 981.461996,638.362599 C866.849176,670.575619 715.476571,678.822946 675.723573,701.1349 C573.289021,758.627797 512.392828,874.394503 496.70041,904.40151 C467.796363,959.671764 377.699154,1006.02084 226.408782,1043.44874 L99.2490518,965.458747 Z" id="Rectangle-5-Copy" fill="#1F174D" transform="translate(801.809134, 629.383630) scale(1, -1) rotate(20.000000) translate(-801.809134, -629.383630) "></path>
                    <path d="M125.980018,979.775812 C276.106075,908.032018 374.834012,846.355941 422.163827,794.747583 C482.338716,729.132977 491.12974,646.612696 542.972468,616.337095 C623.710113,569.187169 824.73923,538.479319 1001.21865,506.823506 C1048.24253,498.388644 1133.42521,457.607552 1256.76668,384.480228 L1496.68574,229.635583 L1491.18718,255.112399 L1409.1961,326.050265 C1329.87576,393.741937 1269.63429,440.076232 1228.47168,465.053149 C1110.87889,536.406884 996.50545,575.67054 968.279964,583.60358 C853.667144,615.8166 702.294539,624.063927 662.541541,646.375881 C560.106989,703.868778 499.210796,819.635484 483.518378,849.642492 C454.614331,904.912745 364.517122,951.261823 213.22675,988.689724 L125.980018,979.775812 Z" id="Rectangle-5" fill="#5D26AB" opacity="0.0964285714" transform="translate(811.332879, 609.162654) scale(1, -1) rotate(20.000000) translate(-811.332879, -609.162654) "></path>
                </g>
                <path d="M1748.67578,436 C1788.44028,436 1793,408.605013 1793,396.432906 C1793,384.2608 1760.7645,390.703876 1721,390.703876 C1681.2355,390.703876 1649,384.2608 1649,396.432906 C1649,408.605013 1708.91128,436 1748.67578,436 Z" id="Oval-3" fill="#2C1662" opacity="0.573828125"></path>
                <path d="M1744.37096,433 C1777.2319,433 1781,410.267989 1781,400.167731 C1781,390.067472 1754.36094,395.413855 1721.5,395.413855 C1688.63906,395.413855 1662,390.067472 1662,400.167731 C1662,410.267989 1711.51002,433 1744.37096,433 Z" id="Oval-3" fill="#3C197B" opacity="0.573828125"></path>
                <path d="M392.088283,1022.5772 C358.327289,974.175427 450,986.685572 450,970.738247 C450,954.790921 407.882776,963.232339 355.928548,963.232339 C303.97432,963.232339 262,1025.15158 262,1041.09891 C262,1057.04623 425.849278,1070.97898 392.088283,1022.5772 Z" id="Oval-3-Copy" fill="#2C1662" opacity="0.443136161"></path>
                <path d="M370.088283,1017.5772 C336.327289,969.175427 428,981.685572 428,965.738247 C428,949.790921 385.882776,958.232339 333.928548,958.232339 C281.97432,958.232339 240,1020.15158 240,1036.09891 C240,1052.04623 403.849278,1065.97898 370.088283,1017.5772 Z" id="Oval-3-Copy-2" fill="#3C197B" opacity="0.443136161"></path>
                <polygon id="Star-Copy-21" fill="#67528F" points="1631 1185.94652 1613.69505 1195 1617 1175.82442 1603 1162.2442 1622.34752 1159.44652 1631 1142 1639.65248 1159.44652 1659 1162.2442 1645 1175.82442 1648.30495 1195"></polygon>
            </g>
        </g>
    </g>
</svg>