<?xml version="1.0" encoding="UTF-8"?>
<svg width="375px" height="2133px" viewBox="0 0 375 2133" version="1.1" xmlns="http://www.w3.org/2000/svg" xmlns:xlink="http://www.w3.org/1999/xlink">
    <!-- Generator: Sketch 51.3 (57544) - http://www.bohemiancoding.com/sketch -->
    <title>Group 44</title>
    <desc>Created with Sketch.</desc>
    <defs>
        <radialGradient cx="50.7666316%" cy="50%" fx="50.7666316%" fy="50%" r="563.686695%" gradientTransform="translate(0.507666,0.500000),scale(1.000000,0.177404),rotate(90.000000),translate(-0.507666,-0.500000)" id="radialGradient-1">
            <stop stop-color="#34146D" offset="0%"></stop>
            <stop stop-color="#141A3B" offset="100%"></stop>
        </radialGradient>
    </defs>
    <g id="Page-1" stroke="none" stroke-width="1" fill="none" fill-rule="evenodd">
        <g id="iPhone-X" transform="translate(0.000000, -3534.000000)">
            <g id="Group-44" transform="translate(-328.000000, 3390.000000)">
                <path d="M328,144.731682 C389.1802,160.025585 452.225515,167.672536 517.135945,167.672536 C582.046376,167.672536 644.001061,160.025585 703,144.731682 L706.271891,2277 C645.052062,2264.25 582.006747,2257.875 517.135945,2257.875 C452.265144,2257.875 390.310459,2264.25 331.271891,2277 L328,144.731682 Z" id="Rectangle-14" fill="url(#radialGradient-1)" fill-rule="nonzero"></path>
                <g id="Group-21"></g>
                <g id="Group-12" transform="translate(1.000000, 0.000000)" fill-rule="nonzero">
                    <path d="M73.4322381,710.099126 C183.750007,657.331252 256.298676,611.968228 291.078246,574.010055 C335.296816,525.750226 341.756761,465.056199 379.852573,442.788362 C439.18136,408.109385 586.904441,385.523627 716.587561,362.240639 C751.142325,356.036761 813.737475,326.042089 904.373011,272.256623 L1080.67375,158.367711 L1105.96266,227.911781 L1045.71281,280.086891 C987.425504,329.874412 943.158007,363.953488 912.910316,382.32412 C826.499102,434.805104 742.453581,463.683695 721.712527,469.51848 C637.491101,493.211297 526.257327,499.277242 497.045462,515.687782 C421.773045,557.974059 377.024436,643.120977 365.49311,665.191262 C344.253426,705.842775 278.04691,739.932724 166.873563,767.461109 L73.4322381,710.099126 Z" id="Rectangle-5-Copy" fill="#1F174D" transform="translate(589.697450, 462.914410) scale(1, -1) rotate(20.000000) translate(-589.697450, -462.914410) "></path>
                    <path d="M93.0750678,720.62939 C203.392837,667.861516 275.941506,622.498492 310.721076,584.540319 C354.939645,536.28049 361.399591,475.586463 399.495403,453.318626 C458.82419,418.639649 606.547271,396.053892 736.230391,372.770903 C770.785154,366.567025 833.380304,336.572353 924.015841,282.786887 L1100.31658,168.897975 L1096.27605,187.636284 L1036.0262,239.811394 C977.738895,289.598915 933.471398,323.677991 903.223707,342.048623 C816.812493,394.529607 732.766972,423.408197 712.025919,429.242983 C627.804493,452.9358 516.570718,459.001745 487.358853,475.412284 C412.086436,517.698561 367.337828,602.845479 355.806501,624.915764 C334.566817,665.567277 268.360302,699.657226 157.186955,727.185611 L93.0750678,720.62939 Z" id="Rectangle-5" fill="#5D26AB" opacity="0.0964285714" transform="translate(596.695825, 448.041793) scale(1, -1) rotate(20.000000) translate(-596.695825, -448.041793) "></path>
                </g>
                <g id="Group-14" transform="translate(353.000000, 721.000000)" fill-rule="nonzero" opacity="0.443136161">
                    <path d="M127.64187,52.4211859 C99.5054142,11.8989537 175.905568,22.372515 175.905568,9.02132736 C175.905568,-4.32986032 140.80502,2.73734032 97.506301,2.73734032 C54.2075816,2.73734032 19.2261305,54.5764678 19.2261305,67.9276555 C19.2261305,81.2788432 155.778325,92.9434181 127.64187,52.4211859 Z" id="Oval-3-Copy" fill="#2C1662"></path>
                    <path d="M109.307042,52.4211859 C81.1705865,11.8989537 157.57074,22.372515 157.57074,9.02132736 C157.57074,-4.32986032 122.470193,2.73734032 79.1714732,2.73734032 C35.8727539,2.73734032 0.891302716,54.5764678 0.891302716,67.9276555 C0.891302716,81.2788432 137.443498,92.9434181 109.307042,52.4211859 Z" id="Oval-3-Copy-2" fill="#3C197B"></path>
                </g>
            </g>
        </g>
    </g>
</svg>