<?xml version="1.0" encoding="UTF-8"?>
<svg width="34px" height="32px" viewBox="0 0 34 32" version="1.1" xmlns="http://www.w3.org/2000/svg" xmlns:xlink="http://www.w3.org/1999/xlink">
    <!-- Generator: Sketch 51.3 (57544) - http://www.bohemiancoding.com/sketch -->
    <title>notificaties icon</title>
    <desc>Created with Sketch.</desc>
    <defs></defs>
    <g id="Page-1" stroke="none" stroke-width="1" fill="none" fill-rule="evenodd">
        <g id="iPhone-X" transform="translate(-26.000000, -5409.000000)" fill="#F2E211" fill-rule="nonzero">
            <g id="Group-39" transform="translate(25.000000, 5173.000000)">
                <g id="Group-35" transform="translate(0.000000, 236.000000)">
                    <g id="Group-34" transform="translate(1.000000, 0.000000)">
                        <g id="notificaties-icon">
                            <path d="M8.94328358,2.60195695 L6.70746269,0.366340509 C2.87462687,3.2407045 0.319402985,7.71193738 0,12.8219178 L3.19402985,12.8219178 C3.51343284,8.51037182 5.58955224,4.83757339 8.94328358,2.60195695 Z M30.3432836,12.8219178 L33.5373134,12.8219178 C33.2179104,7.71193738 30.8223881,3.2407045 26.9895522,0.366340509 L24.7537313,2.60195695 C27.9477612,4.83757339 30.0238806,8.51037182 30.3432836,12.8219178 Z M27.1492537,13.6203523 C27.1492537,8.67005871 23.7955224,4.6778865 19.1641791,3.56007828 L19.1641791,2.44227006 C19.1641791,1.16477495 18.0462687,0.0469667319 16.7686567,0.0469667319 C15.4910448,0.0469667319 14.3731343,1.16477495 14.3731343,2.44227006 L14.3731343,3.56007828 C9.74179104,4.6778865 6.3880597,8.67005871 6.3880597,13.6203523 L6.3880597,22.4031311 L3.19402985,25.5968689 L3.19402985,27.1937378 L30.3432836,27.1937378 L30.3432836,25.5968689 L27.1492537,22.4031311 L27.1492537,13.6203523 Z M16.7686567,31.9843444 C16.9283582,31.9843444 17.2477612,31.9843444 17.4074627,31.9843444 C18.5253731,31.8246575 19.3238806,31.0262231 19.6432836,30.0681018 C19.8029851,29.7486654 19.9626866,29.2696673 19.9626866,28.7906067 L13.5746269,28.7906067 C13.5746269,30.5471624 15.0119403,31.9843444 16.7686567,31.9843444 Z" id="Shape"></path>
                        </g>
                    </g>
                </g>
            </g>
        </g>
    </g>
</svg>