<?xml version="1.0" encoding="UTF-8"?>
<svg width="107px" height="123px" viewBox="0 0 107 123" version="1.1" xmlns="http://www.w3.org/2000/svg" xmlns:xlink="http://www.w3.org/1999/xlink">
    <!-- Generator: Sketch 51.3 (57544) - http://www.bohemiancoding.com/sketch -->
    <title>Charger</title>
    <desc>Created with Sketch.</desc>
    <defs></defs>
    <g id="Page-1" stroke="none" stroke-width="1" fill="none" fill-rule="evenodd">
        <g id="iPhone-X" transform="translate(-55.000000, -6681.000000)" fill-rule="nonzero">
            <g id="Group-16" transform="translate(55.000000, 6681.000000)">
                <g id="Charger">
                    <g id="Group" transform="translate(6.747748, 38.437500)" fill="#240659">
                        <path d="M44.7351577,84.5625 C26.3571847,84.5625 11.4061036,69.6578789 11.4061036,51.3380859 C11.4061036,33.018293 26.3574257,18.1136719 44.7351577,18.1136719 C63.1128896,18.1136719 78.0642117,33.0180527 78.0642117,51.3380859 C78.0642117,69.6581191 63.1131306,84.5625 44.7351577,84.5625 Z M44.7351577,22.0059492 C28.5104392,22.0059492 15.3106396,35.1643066 15.3106396,51.3380859 C15.3106396,67.5118652 28.5104392,80.6702227 44.7351577,80.6702227 C60.9598761,80.6702227 74.1596757,67.5118652 74.1596757,51.3380859 C74.1599167,35.1643066 60.9601171,22.0059492 44.7351577,22.0059492 Z" id="Shape"></path>
                        <path d="M45.2159347,84.5625 C20.329759,84.5625 0.0829009009,64.3796895 0.0829009009,39.571166 L0.0829009009,20.0595703 C0.0829009009,18.9845215 0.956975225,18.1134316 2.03516892,18.1134316 C3.11336261,18.1134316 3.98743694,18.9845215 3.98743694,20.0595703 L3.98743694,39.571166 C3.98743694,62.2329551 22.4825315,80.6699824 45.2156937,80.6699824 C67.9488559,80.6699824 86.4439505,62.2329551 86.4439505,39.571166 L86.4439505,2.01292383 C86.4439505,0.937875 87.3180248,0.0667851563 88.3962185,0.0667851563 C89.4744122,0.0667851563 90.3484865,0.937875 90.3484865,2.01292383 L90.3484865,39.571166 C90.3489685,64.3796895 70.1025923,84.5625 45.2159347,84.5625 Z" id="Shape"></path>
                    </g>
                    <path d="M90.3287252,33.7899258 L90.3287252,39.3258867 C90.3287252,41.0457246 91.7274369,42.4398047 93.4524505,42.4398047 L96.7496892,42.4398047 C98.4749437,42.4398047 99.8734144,41.0457246 99.8734144,39.3258867 L99.8734144,33.7899258 L90.3287252,33.7899258 Z" id="Shape" fill="#34146D"></path>
                    <path d="M11.9560365,24.4914141 L5.51657571,24.4914141 C5.11025678,24.4914141 4.78063363,25.1011289 4.78063363,25.8537832 L4.78063363,28.4487949 L4.78063363,35.5609336 L4.78063363,38.1559453 L12.6923679,38.1559453 L12.6923679,35.5609336 L12.6923679,28.4487949 L12.6923679,25.8537832 C12.6921083,25.1011289 12.3624852,24.4914141 11.9560365,24.4914141 Z" id="Shape" fill="#000000"></path>
                    <path d="M7.02336878,28.4487949 L7.02336878,25.8537832 C7.02336878,25.1013691 7.35286216,24.4914141 7.75931086,24.4914141 L5.51657571,24.4914141 C5.11025678,24.4914141 4.78063363,25.1011289 4.78063363,25.8537832 L4.78063363,28.4487949 L4.78063363,35.5609336 L4.78063363,38.1559453 L7.02349855,38.1559453 L7.02349855,35.5609336 L7.02349855,28.4487949 L7.02336878,28.4487949 Z" id="Shape" fill="#231F20" opacity="0.21484375"></path>
                    <path d="M9.72562974,27.1464844 L7.69299691,27.1464844 C7.11226321,27.1464844 6.6417067,26.7135739 6.6417067,26.1793008 C6.6417067,25.6450277 7.11226321,25.2121172 7.69299691,25.2121172 L9.72562974,25.2121172 C10.3063634,25.2121172 10.77692,25.6450277 10.77692,26.1793008 C10.77692,26.7135739 10.3063634,27.1464844 9.72562974,27.1464844 Z" id="Shape" fill="#FFFFFF"></path>
                    <g id="Group" transform="translate(86.515766, 0.000000)" fill="#000000">
                        <path d="M2.07758333,13.1602793 C0.99938964,13.1602793 0.125315315,12.2891895 0.125315315,11.2141406 L0.125315315,1.94613867 C0.125315315,0.871089844 0.99938964,0 2.07758333,0 C3.15577703,0 4.02985135,0.871089844 4.02985135,1.94613867 L4.02985135,11.2139004 C4.03009234,12.2889492 3.15577703,13.1602793 2.07758333,13.1602793 Z" id="Shape"></path>
                        <path d="M15.0932658,13.1602793 C14.0150721,13.1602793 13.1409977,12.2891895 13.1409977,11.2141406 L13.1409977,1.94613867 C13.1409977,0.871089844 14.0150721,0 15.0932658,0 C16.1714595,0 17.0455338,0.871089844 17.0455338,1.94613867 L17.0455338,11.2139004 C17.0455338,12.2889492 16.1714595,13.1602793 15.0932658,13.1602793 Z" id="Shape"></path>
                    </g>
                    <path d="M4.82753153,55.1119277 C4.82753153,56.8317656 6.22624324,58.2258457 7.95125676,58.2258457 L9.61554054,58.2258457 C11.3405541,58.2258457 12.7392658,56.8317656 12.7392658,55.1119277 L12.7392658,51.5319551 L4.82753153,51.5319551 L4.82753153,55.1119277 Z" id="Shape" fill="#34146D"></path>
                    <g id="Group" transform="translate(0.000000, 10.810547)" fill="#5D26AB">
                        <path d="M17.5545068,37.9491035 C17.5545068,39.7133848 16.1194054,41.1437402 14.3493266,41.1437402 L3.21674775,41.1437402 C1.44666892,41.1437402 0.0115675676,39.7131445 0.0115675676,37.9491035 L0.0115675676,27.6858105 C0.0115675676,25.9215293 1.44666892,24.4906934 3.21674775,24.4906934 L14.3495676,24.4906934 C16.1196464,24.4906934 17.5547477,25.9215293 17.5547477,27.6858105 C17.5545068,27.6858105 17.5545068,37.9491035 17.5545068,37.9491035 Z" id="Shape"></path>
                        <path d="M106.988673,20.7305449 C106.988673,22.4503828 105.590203,23.8444629 103.864948,23.8444629 L86.3374324,23.8444629 C84.6124189,23.8444629 83.2137072,22.4503828 83.2137072,20.7305449 L83.2137072,3.25781836 C83.2137072,1.53798047 84.6124189,0.143900391 86.3374324,0.143900391 L103.864948,0.143900391 C105.590203,0.143900391 106.988673,1.53798047 106.988673,3.25781836 L106.988673,20.7305449 Z" id="Shape"></path>
                    </g>
                    <g id="Group" transform="translate(0.000000, 10.810547)" fill="#231F20" opacity="0.15">
                        <path d="M4.17661486,37.9491035 L4.17661486,27.6858105 C4.17661486,25.9215293 5.61147523,24.4906934 7.38179505,24.4906934 L3.21698874,24.4906934 C1.44690991,24.4906934 0.0118085586,25.9215293 0.0118085586,27.6858105 L0.0118085586,37.9491035 C0.0118085586,39.7133848 1.44690991,41.1437402 3.21698874,41.1437402 L7.38203604,41.1437402 C5.61147523,41.1439805 4.17661486,39.7133848 4.17661486,37.9491035 Z" id="Shape"></path>
                        <path d="M87.3785135,20.7305449 L87.3785135,3.25781836 C87.3785135,1.53798047 88.7769842,0.143900391 90.5022387,0.143900391 L86.3371914,0.143900391 C84.6121779,0.143900391 83.2134662,1.53798047 83.2134662,3.25781836 L83.2134662,20.7305449 C83.2134662,22.4503828 84.6121779,23.8444629 86.3371914,23.8444629 L90.5022387,23.8444629 C88.7769842,23.8444629 87.3785135,22.450623 87.3785135,20.7305449 Z" id="Shape"></path>
                    </g>
                    <path d="M7.83220721,25.1044922 L7.83220721,27.2666016" id="Line" stroke="#000000" stroke-width="0.719999968" stroke-linecap="square"></path>
                    <path d="M9.45864865,25.1044922 L9.45864865,27.2666016" id="Line-Copy" stroke="#000000" stroke-width="0.719999968" stroke-linecap="square"></path>
                </g>
            </g>
        </g>
    </g>
</svg>