<?xml version="1.0" encoding="UTF-8"?>
<svg width="487px" height="455px" viewBox="0 0 487 455" version="1.1" xmlns="http://www.w3.org/2000/svg" xmlns:xlink="http://www.w3.org/1999/xlink">
    <!-- Generator: Sketch 51.3 (57544) - http://www.bohemiancoding.com/sketch -->
    <title>Group 20</title>
    <desc>Created with Sketch.</desc>
    <defs></defs>
    <g id="Page-1" stroke="none" stroke-width="1" fill="none" fill-rule="evenodd">
        <g id="Artboard-3" fill-rule="nonzero">
            <g id="Group-20">
                <path d="M233.144185,384 C361.906163,384 487,332.775899 487,226.737227 C487,120.698555 361.906163,0 233.144185,0 C175.030586,0 155.581978,75.5237067 114.755298,104.486586 C65.1225304,139.696597 0,133.819314 0,192 C0,298.038672 104.382207,384 233.144185,384 Z" id="Oval-Copy-3" fill="#34146D"></path>
                <g id="Group-8" transform="translate(200.000000, 353.000000)">
                    <polygon id="Star" fill="#745F9E" points="204.26 41.7190331 187.906821 50.3136265 191.03 32.1099854 177.8 19.2180952 196.08341 16.5622198 204.26 0 212.43659 16.5622198 230.72 19.2180952 217.49 32.1099854 220.613179 50.3136265"></polygon>
                    <polygon id="Star-Copy-10" fill="#A999C5" points="153.72 94.1394838 139.183841 101.731375 141.96 85.6514917 130.2 74.2636554 146.45192 71.9176321 153.72 57.2876712 160.98808 71.9176321 177.24 74.2636554 165.48 85.6514917 168.256159 101.731375"></polygon>
                    <polygon id="Star-Copy-12" fill="#745F9E" points="92.96 59.2344803 80.5004348 65.6804254 82.88 52.0276946 72.8 42.3587769 86.7302174 40.3668703 92.96 27.9452055 99.1897826 40.3668703 113.12 42.3587769 103.04 52.0276946 105.419565 65.6804254"></polygon>
                    <polygon id="Star-Copy-11" fill="#A999C5" points="15.96 77.4286801 6.09617754 82.5854362 7.98 71.6632515 -2.06501483e-14 63.9281174 11.0280888 62.3345922 15.96 52.3972603 20.8919112 62.3345922 31.92 63.9281174 23.94 71.6632515 25.8238225 82.5854362"></polygon>
                </g>
            </g>
        </g>
    </g>
</svg>