<?xml version="1.0" encoding="UTF-8"?>
<svg width="28px" height="42px" viewBox="0 0 28 42" version="1.1" xmlns="http://www.w3.org/2000/svg" xmlns:xlink="http://www.w3.org/1999/xlink">
    <!-- Generator: Sketch 51.3 (57544) - http://www.bohemiancoding.com/sketch -->
    <title>sensor icon</title>
    <desc>Created with Sketch.</desc>
    <defs></defs>
    <g id="Page-1" stroke="none" stroke-width="1" fill="none" fill-rule="evenodd">
        <g id="iPhone-X" transform="translate(-25.000000, -3947.000000)" fill="#F2E211" fill-rule="nonzero">
            <g id="Group-42" transform="translate(25.000000, 3696.000000)">
                <g id="Group-29" transform="translate(0.000000, 251.000000)">
                    <g id="sensor-icon" transform="translate(14.000000, 21.000000) rotate(90.000000) translate(-14.000000, -21.000000) translate(-7.000000, 7.000000)">
                        <g id="flaticon1586114260-svg" transform="translate(4.902724, 0.000000)">
                            <path d="M31.7133029,6.33139132 C27.5436175,2.24883857 21.9980077,0 16.0972763,0 C10.1965448,0 4.65093499,2.24883857 0.481249668,6.33139132 C-0.0938353421,6.89436953 -0.0938353421,7.80627895 0.481249668,8.36916109 C1.05633468,8.93204323 1.98811177,8.93204323 2.56319678,8.36916109 C6.17782054,4.83123692 10.9830538,2.88214102 16.0972763,2.88214102 C21.2114987,2.88214102 26.016732,4.83123692 29.6313557,8.36916109 C30.2064408,8.93204323 31.1382179,8.93204323 31.7133029,8.36916109 C32.2883879,7.80627895 32.2883879,6.89427346 31.7133029,6.33139132 Z" id="Shape"></path>
                            <path d="M27.5846057,10.4357523 C24.5264177,7.44245668 20.4588127,5.79310345 16.1324734,5.79310345 C11.8061341,5.79310345 7.73852902,7.44245668 4.68034099,10.4357523 C4.10525598,10.9986344 4.10525598,11.9106399 4.68034099,12.473522 C5.255426,13.0364042 6.1872031,13.0364042 6.76228811,12.473522 C9.26551272,10.024855 12.592643,8.67524447 16.1324734,8.67524447 C19.6723037,8.67524447 22.999434,10.024855 25.5026586,12.473522 C26.0777436,13.0365003 27.0094226,13.0365003 27.5846057,12.473522 C28.1596907,11.9106399 28.1596907,10.9986344 27.5846057,10.4357523 Z" id="Shape"></path>
                            <path d="M25.1590317,15.6763136 C22.7828131,13.3505165 19.6222753,12.0689655 16.2607004,12.0689655 C12.8991255,12.0689655 9.7385877,13.3505165 7.36236907,15.6763136 C6.91552678,16.1136742 6.91552678,16.8223044 7.36236907,17.259665 C7.80921135,17.6970257 8.53320414,17.6970257 8.98004642,17.259665 C10.9250573,15.3570455 13.5102447,14.3083952 16.2607004,14.3083952 C19.0111561,14.3083952 21.5963435,15.3570455 23.5413544,17.259665 C23.9881966,17.6971003 24.7121132,17.6971003 25.1590317,17.259665 C25.605874,16.8223044 25.605874,16.1136742 25.1590317,15.6763136 Z" id="Shape-Copy"></path>
                        </g>
                        <rect id="Rectangle-21" x="0" y="21.4022989" width="42" height="6.59770115" rx="1.43999994"></rect>
                        <rect id="Rectangle-21-Copy" x="6.70038911" y="19.3103448" width="28.5992218" height="3.37931034"></rect>
                    </g>
                </g>
            </g>
        </g>
    </g>
</svg>