<?xml version="1.0" encoding="UTF-8"?>
<svg width="1440px" height="594px" viewBox="0 0 1440 594" version="1.1" xmlns="http://www.w3.org/2000/svg" xmlns:xlink="http://www.w3.org/1999/xlink">
    <!-- Generator: Sketch 51.3 (57544) - http://www.bohemiancoding.com/sketch -->
    <title>Group 43</title>
    <desc>Created with Sketch.</desc>
    <defs></defs>
    <g id="Page-1" stroke="none" stroke-width="1" fill="none" fill-rule="evenodd">
        <g id="One-page" transform="translate(0.000000, -4353.000000)" fill-rule="nonzero">
            <g id="Group-27" transform="translate(-17.000000, 4161.000000)">
                <g id="Group-43">
                    <path d="M61,827.131828 C201.003528,756.548114 300.276366,698.748356 358.818513,653.732553 C454.850656,579.888933 570.281807,441.499884 595.012453,414.556418 C655.206287,348.976631 666.566416,252.824649 718.425465,222.565113 C831.468157,156.605181 1064.32634,119.750143 1417,112 L1417,222.565113 C1154.08722,253.299649 991.546879,286.098498 929.378966,320.961661 C826.912164,378.424049 815.94291,425.112898 800.245551,455.103982 C781.64235,490.646914 719.518027,620.819202 546.532241,741.591755 C482.619435,786.213415 326.356011,846.349496 77.741969,922 L61,827.131828 Z" id="Rectangle-5" fill="#FAF9FC" transform="translate(739.000000, 517.000000) rotate(10.000000) translate(-739.000000, -517.000000) "></path>
                    <path d="M63,847.270545 C230.928121,764.567578 343.250865,701.985241 399.96823,659.523534 C493.007015,589.869636 604.840132,459.332474 628.799915,433.917721 C687.117484,372.058784 698.123513,281.362251 748.366096,252.819573 C857.885203,190.602061 1076.03216,156.662203 1402.80697,151 L1413,208.814063 C1125.62823,237.227489 951.827281,267.876755 891.597166,300.761859 C792.324294,354.96396 781.696956,399.003788 766.488889,427.293245 C748.465557,460.819549 688.277673,583.606152 520.683921,697.52634 C458.763302,739.616266 308.536855,802.774153 70.0045818,887 L63,847.270545 Z" id="Rectangle-5" fill="#F2F0F6" transform="translate(738.000000, 519.000000) rotate(10.000000) translate(-738.000000, -519.000000) "></path>
                    <polygon id="Star-Copy-25" fill="#67528F" points="320.5 697.750776 301.031929 708 304.75 686.291796 289 670.917961 310.765965 667.750776 320.5 648 330.234035 667.750776 352 670.917961 336.25 686.291796 339.968071 708"></polygon>
                    <polygon id="Star-Copy-26" fill="#67528F" points="240 770.946519 222.695048 780 226 760.82442 212 747.244199 231.347524 744.446519 240 727 248.652476 744.446519 268 747.244199 254 760.82442 257.304952 780"></polygon>
                    <polygon id="Star-Copy-27" fill="#67528F" points="168 719.313082 153.167184 727 156 710.718847 144 699.188471 160.583592 696.813082 168 682 175.416408 696.813082 192 699.188471 180 710.718847 182.832816 727"></polygon>
                    <polygon id="Star-Copy-28" fill="#67528F" points="36 760.850466 24.2573542 767 26.5 753.975078 17 744.750776 30.1286771 742.850466 36 731 41.8713229 742.850466 55 744.750776 45.5 753.975078 47.7426458 767"></polygon>
                </g>
            </g>
        </g>
    </g>
</svg>