<?xml version="1.0" encoding="UTF-8"?>
<svg width="1440px" height="335px" viewBox="0 0 1440 335" version="1.1" xmlns="http://www.w3.org/2000/svg" xmlns:xlink="http://www.w3.org/1999/xlink">
    <!-- Generator: Sketch 51.3 (57544) - http://www.bohemiancoding.com/sketch -->
    <title>Group 20</title>
    <desc>Created with Sketch.</desc>
    <defs></defs>
    <g id="Page-1" stroke="none" stroke-width="1" fill="none" fill-rule="evenodd" opacity="0.803516">
        <g id="One-page-Copy" transform="translate(0.000000, -462.000000)" fill="#34146D" fill-rule="nonzero">
            <g id="Group-20" transform="translate(716.174969, 582.559488) rotate(-10.000000) translate(-716.174969, -582.559488) translate(13.174969, 334.559488)">
                <path d="M3.25709077,403.543705 C95.763817,376.414181 165.682088,341.538054 213.011903,298.915323 C273.186792,244.724999 311.687643,130.30625 363.530371,105.30199 C476.537484,50.7975426 820.147973,15.7839715 1394.36184,0.261277102 L1405.64525,64.2526681 C879.045259,123.591572 584.671091,167.665203 522.522744,196.473562 C420.088193,243.956263 380.325427,317.754782 364.633008,342.537214 C335.728961,388.18426 214.383779,439.149987 0.597460811,495.434394 L3.25709077,403.543705 Z" id="Rectangle-5" opacity="0.04140625" transform="translate(703.121354, 247.847836) scale(1, -1) translate(-703.121354, -247.847836) "></path>
                <path d="M8.23500985,438.614268 C135.236418,389.88213 222.40203,346.042004 269.731845,307.093892 C329.906734,257.575459 364.401428,153.992267 416.244156,131.14369 C529.251269,81.3382143 856.460202,46.6242686 1397.87096,27.0018527 L1402.00902,50.4699906 C866.956197,96.1124479 568.355611,132.096034 506.207265,158.420749 C403.772713,201.809841 373.332285,268.947464 357.639866,291.593336 C328.735819,333.30503 214.437469,394.618318 14.7448136,475.5332 L8.23500985,438.614268 Z" id="Rectangle-5" opacity="0.0631696429" transform="translate(705.122016, 251.267526) scale(1, -1) translate(-705.122016, -251.267526) "></path>
            </g>
        </g>
    </g>
</svg>