<?xml version="1.0" encoding="UTF-8"?>
<svg width="40px" height="31px" viewBox="0 0 40 31" version="1.1" xmlns="http://www.w3.org/2000/svg" xmlns:xlink="http://www.w3.org/1999/xlink">
    <!-- Generator: Sketch 51.3 (57544) - http://www.bohemiancoding.com/sketch -->
    <title>verhaal icon</title>
    <desc>Created with Sketch.</desc>
    <defs></defs>
    <g id="Page-1" stroke="none" stroke-width="1" fill="none" fill-rule="evenodd">
        <g id="iPhone-X" transform="translate(-33.000000, -1125.000000)" fill="#5D26AB" fill-rule="nonzero">
            <g id="De-verhaaltjes" transform="translate(25.000000, 1125.000000)">
                <g id="verhaal-icon" transform="translate(8.000000, 0.000000)">
                    <path d="M6.11878797,0.00656211464 C6.11771053,0.00656211464 6.11649841,0.00656211464 6.11542097,0.00656211464 C5.73710446,0.00656211464 5.38127954,0.153205289 5.11259267,0.419707495 C4.84094283,0.689155957 4.6913132,1.04792953 4.6913132,1.42987139 L4.6913132,22.7721448 C4.6913132,23.5547774 5.33414149,24.1930435 6.12444454,24.1950523 C9.45616176,24.2029537 15.0381147,24.8934488 18.8888892,28.9004903 L18.8888892,6.56519481 C18.8888892,6.29989789 18.820741,6.05067146 18.6921215,5.84443357 C15.5315827,0.783302214 9.45804728,0.0143295156 6.11878797,0.00656211464 Z" id="Shape"></path>
                    <path d="M35.3086874,22.7721448 L35.3086874,1.42973747 C35.3086874,1.04779561 35.1590578,0.689022037 34.8874079,0.419573575 C34.6187211,0.153071368 34.2626268,0.00642819393 33.8847143,0.00642819393 C33.8835022,0.00642819393 33.8822901,0.00642819393 33.8812126,0.00642819393 C30.542088,0.0143295156 24.4685526,0.783302214 21.3078791,5.84443357 C21.1792596,6.05067146 21.1112461,6.29989789 21.1112461,6.56519481 L21.1112461,28.9003564 C24.9620206,24.8933149 30.5439735,24.2028197 33.8756907,24.1949184 C34.6658591,24.1929096 35.3086874,23.5546435 35.3086874,22.7721448 Z" id="Shape"></path>
                    <path d="M38.5687548,4.92841593 L37.5309097,4.92841593 L37.5309097,22.7721448 C37.5309097,24.7703757 35.8936032,26.3997889 33.8809433,26.404744 C31.05495,26.41144 26.3952866,26.9609167 23.0952192,30.0666718 C28.802694,28.6771106 34.8193945,29.5804057 38.2483507,30.3574137 C38.6764989,30.4543723 39.1189231,30.3541996 39.4619534,30.0823405 C39.8037716,29.8111511 39.9998659,29.4057731 39.9998659,28.9706647 L39.9998659,6.35145736 C40.0000006,5.56681594 39.3578457,4.92841593 38.5687548,4.92841593 Z" id="Shape"></path>
                    <path d="M2.46895627,22.7721448 L2.46895627,4.92841593 L1.43111113,4.92841593 C0.642154892,4.92841593 0,5.56681594 0,6.35145736 L0,28.970263 C0,29.4055053 0.196094279,29.8107493 0.537912466,30.0819388 C0.880673414,30.3536639 1.32269362,30.4542383 1.75151518,30.3570119 C5.18047146,29.57987 11.1973066,28.6767088 16.904512,30.0662701 C13.6045793,26.9606489 8.94491596,26.4113061 6.11892265,26.4046101 C4.10639737,26.3997889 2.46895627,24.7703757 2.46895627,22.7721448 Z" id="Shape"></path>
                </g>
            </g>
        </g>
    </g>
</svg>