<?xml version="1.0" encoding="UTF-8"?>
<svg width="40px" height="31px" viewBox="0 0 40 31" version="1.1" xmlns="http://www.w3.org/2000/svg" xmlns:xlink="http://www.w3.org/1999/xlink">
    <!-- Generator: Sketch 51.3 (57544) - http://www.bohemiancoding.com/sketch -->
    <title>verhaal icon</title>
    <desc>Created with Sketch.</desc>
    <defs></defs>
    <g id="Page-1" stroke="none" stroke-width="1" fill="none" fill-rule="evenodd">
        <g id="iPhone-X" transform="translate(-26.000000, -4452.000000)" fill="#F2E211" fill-rule="nonzero">
            <g id="Group-41" transform="translate(25.000000, 4204.000000)">
                <g id="Group-31" transform="translate(0.000000, 248.000000)">
                    <g id="Group-30" transform="translate(1.000000, 0.000000)">
                        <g id="verhaal-icon">
                            <path d="M6.11878788,0.00660274683 C6.11771044,0.00660274683 6.11649832,0.00660274683 6.11542088,0.00660274683 C5.73710438,0.00660274683 5.38127946,0.154153926 5.11259259,0.422306297 C4.84094276,0.693423167 4.69131313,1.05441824 4.69131313,1.43872506 L4.69131313,22.9131485 C4.69131313,23.7006271 5.33414141,24.3428453 6.12444444,24.3448665 C9.45616162,24.3528168 15.0381145,25.0475875 18.8888889,29.0794403 L18.8888889,6.60584607 C18.8888889,6.33890645 18.8207407,6.08813682 18.6921212,5.88062192 C15.5315825,0.788152371 9.45804714,0.0144182431 6.11878788,0.00660274683 Z" id="Shape"></path>
                            <path d="M35.3086869,22.9131485 L35.3086869,1.43859031 C35.3086869,1.05428349 35.1590572,0.693288417 34.8874074,0.422171547 C34.6187205,0.154019176 34.2626263,0.00646799689 33.8847138,0.00646799689 C33.8835017,0.00646799689 33.8822896,0.00646799689 33.8812121,0.00646799689 C30.5420875,0.0144182431 24.4685522,0.788152371 21.3078788,5.88062192 C21.1792593,6.08813682 21.1112458,6.33890645 21.1112458,6.60584607 L21.1112458,29.0793055 C24.9620202,25.0474527 30.5439731,24.352682 33.8756902,24.3447318 C34.6658586,24.3427105 35.3086869,23.7004924 35.3086869,22.9131485 Z" id="Shape"></path>
                            <path d="M38.5687542,4.95893237 L37.5309091,4.95893237 L37.5309091,22.9131485 C37.5309091,24.9237523 35.8936027,26.5632547 33.8809428,26.5682405 C31.0549495,26.574978 26.3952862,27.127857 23.0952189,30.2528427 C28.8026936,28.8546774 34.8193939,29.7635657 38.2483502,30.5453848 C38.6764983,30.6429438 39.1189226,30.5421508 39.4619529,30.2686084 C39.803771,29.9957398 39.9998653,29.5878518 39.9998653,29.1500492 L39.9998653,6.39078518 C40,5.60128531 39.3578451,4.95893237 38.5687542,4.95893237 Z" id="Shape"></path>
                            <path d="M2.46895623,22.9131485 L2.46895623,4.95893237 L1.43111111,4.95893237 C0.642154882,4.95893237 0,5.60128531 0,6.39078518 L0,29.149645 C0,29.5875823 0.196094276,29.9953356 0.537912458,30.2682042 C0.880673401,30.5416118 1.3226936,30.642809 1.75151515,30.5449806 C5.18047138,29.7630267 11.1973064,28.8542731 16.9045118,30.2524385 C13.6045791,27.1275875 8.94491582,26.5748432 6.11892256,26.5681057 C4.10639731,26.5632547 2.46895623,24.9237523 2.46895623,22.9131485 Z" id="Shape"></path>
                        </g>
                    </g>
                </g>
            </g>
        </g>
    </g>
</svg>